<svg width="18" height="16" viewBox="0 0 18 16" fill="none" xmlns="http://www.w3.org/2000/svg">
<path d="M11.7366 3.04599C10.8645 2.71422 9.94367 2.53998 9 2.53998C6.3525 2.53998 3.885 3.91146 2.1675 6.28517C1.4925 7.21488 1.4925 8.77758 2.1675 9.70728C2.50858 10.1787 2.87924 10.6105 3.27501 11M14.4936 4.77221C14.9769 5.21705 15.4257 5.723 15.8325 6.28517C16.5075 7.21488 16.5075 8.77758 15.8325 9.70728C14.115 12.081 11.6475 13.4525 9 13.4525C7.96075 13.4525 6.94924 13.2412 5.99994 12.8408" stroke="#AAAAAD" stroke-width="1.125" stroke-linecap="round" stroke-linejoin="round"/>
<path d="M14.2588 3.83783C15.0096 4.42271 15.6935 5.13335 16.2881 5.95502C16.7092 6.53547 16.9013 7.28147 16.9014 7.99603C16.9014 8.71067 16.7093 9.45653 16.2881 10.037C14.4805 12.5351 11.8529 14.0145 9 14.0146C7.41303 14.0146 5.8959 13.5569 4.55078 12.7206L14.2588 3.83783ZM9 1.97748C10.5308 1.9775 11.9965 2.40376 13.3057 3.18451L10.583 5.67572C10.132 5.36839 9.58721 5.18744 9 5.18744C7.44495 5.18744 6.18753 6.44489 6.1875 7.99994C6.1875 8.49769 6.31815 8.96512 6.54492 9.37103L3.6123 12.0536C2.91178 11.4886 2.27248 10.8118 1.71191 10.037C1.29074 9.45654 1.09863 8.71066 1.09863 7.99603C1.09867 7.28132 1.29059 6.53553 1.71191 5.95502C3.51954 3.45696 6.14708 1.97748 9 1.97748ZM11.25 7.43744C10.9394 7.43744 10.6875 7.68931 10.6875 7.99994C10.6875 8.93369 9.93375 9.68744 9 9.68744C8.68936 9.68744 8.43753 9.93931 8.4375 10.2499C8.4375 10.5606 8.68934 10.8124 9 10.8124C10.5551 10.8124 11.8125 9.55501 11.8125 7.99994C11.8125 7.68931 11.5606 7.43744 11.25 7.43744Z" fill="#AAAAAD"/>
<path fill-rule="evenodd" clip-rule="evenodd" d="M16.915 0.645332C17.1247 0.874527 17.1089 1.23033 16.8797 1.44004L14.4759 3.63952C14.2467 3.84923 13.8909 3.83344 13.6812 3.60424C13.4715 3.37505 13.4873 3.01924 13.7165 2.80953L16.1203 0.610057C16.3495 0.400344 16.7053 0.416137 16.915 0.645332ZM4.29852 12.1894C4.50824 12.4186 4.49244 12.7744 4.26325 12.9841L1.87972 15.165C1.65053 15.3747 1.29472 15.3589 1.08501 15.1297C0.875297 14.9006 0.89109 14.5447 1.12028 14.335L3.50381 12.1541C3.733 11.9444 4.08881 11.9602 4.29852 12.1894Z" fill="#AAAAAD"/>
</svg>
