<svg width="16" height="14" viewBox="0 0 16 14" fill="none" xmlns="http://www.w3.org/2000/svg">
<path d="M8.00014 0.977478C10.8531 0.977519 13.4806 2.45693 15.2882 4.95502C15.7094 5.53547 15.9015 6.28147 15.9015 6.99603C15.9015 7.71067 15.7094 8.45653 15.2882 9.03705C13.4806 11.5351 10.853 13.0145 8.00014 13.0146C5.14712 13.0146 2.51969 11.5353 0.712051 9.03705C0.290877 8.45654 0.0987701 7.71066 0.0987701 6.99603C0.0988051 6.28132 0.290728 5.53553 0.712051 4.95502C2.51968 2.45696 5.14722 0.977478 8.00014 0.977478ZM8.00014 4.18744C6.44508 4.18744 5.18767 5.44489 5.18764 6.99994C5.18764 8.55501 6.44506 9.81244 8.00014 9.81244C9.55517 9.81239 10.8126 8.55498 10.8126 6.99994C10.8126 5.44492 9.55515 4.18749 8.00014 4.18744ZM8.00014 5.31244C8.93383 5.31249 9.6876 6.06624 9.68764 6.99994C9.68764 7.93366 8.93385 8.68739 8.00014 8.68744C7.06638 8.68744 6.31264 7.93369 6.31264 6.99994C6.31267 6.06621 7.0664 5.31244 8.00014 5.31244Z" fill="#AAAAAD"/>
</svg>
